<?xml version="1.0" encoding="UTF-8"?>
<svg id="Layer_2" data-name="Layer 2" xmlns="http://www.w3.org/2000/svg" viewBox="0 0 261.18 230.57">
  <defs>
    <style>
      .cls-1 {
        fill: #fff;
        stroke-width: 0px;
      }
    </style>
  </defs>
  <g id="Layer_1-2" data-name="Layer 1">
    <path class="cls-1" d="m112.67,84.35l-16.05,11.25h-31.34l-3.48-11.25,31.97-55.38h16.38l-27.49,47.62h18.12l27.49-47.62h16.38l-31.97,55.38Z"/>
    <g>
      <path class="cls-1" d="m252.56,8.3h-4.82l-1.44-1.4V0h2.39v.68h1.85v1.03l-1.85,1.85v2.36h3.88v2.38Z"/>
      <path class="cls-1" d="m261.18,8.33h-2.34v-2.77h-2.69v2.77h-2.36V0h2.36v3.22h2.69V0h2.34v8.33Z"/>
    </g>
    <g>
      <path class="cls-1" d="m162.02,61.85h-2.56v-6.41h-2.79v2l2.08,2.06v2.16l-1.69-1.7-.39-.04v1.9h-2.59v-7.44l1.56-1.51h4.9l1.48,1.52v7.46Z"/>
      <path class="cls-1" d="m170.86,61.85h-2.59v-6.45h-2.81v6.45h-2.56v-7.5l1.48-1.52h4.91l1.56,1.56v7.46Z"/>
      <path class="cls-1" d="m179.71,61.85h-2.59v-6.45h-2.81v6.45h-2.56v-7.5l1.48-1.52h4.91l1.56,1.56v7.46Z"/>
      <path class="cls-1" d="m183.18,61.85h-2.54v-9.01h2.54v9.01Z"/>
      <path class="cls-1" d="m192.5,56.02l-3.82,5.82h-3.03l-1.56-1.52v-7.5h2.56v6.45h.78l2.54-3.9v-1.05l1.48-1.49h1.05v3.2Z"/>
      <path class="cls-1" d="m201.32,57.09l-1.17,1.17h-1.3l-.94,1.01h1.92v1.24l-1.27,1.34h-5.19v-7.56l1.48-1.5h4.9l1.56,1.5v2.8Zm-2.59-1.64h-2.82v2.91h.08l2.74-2.74v-.17Z"/>
      <path class="cls-1" d="m210.81,61.82l-3.67.03-1.66-1.67v-2.28l2.08-2.1v-.39h-2.79v6.45h-2.56v-7.5l1.48-1.52h4.91l1.56,1.48v2.89l-1.08,1.08h-1.81s3.54,3.55,3.54,3.55Z"/>
      <path class="cls-1" d="m218.72,55.44h-4.12l4.03,4.04v1.04l-1.35,1.35h-6.25v-2.57h3.96l-3.9-3.86v-1.58l.99-1h6.64v2.57Z"/>
      <path class="cls-1" d="m227.52,61.85h-2.56v-6.41h-2.79v2l2.08,2.06v2.16l-1.69-1.7-.39-.04v1.9h-2.59v-7.44l1.56-1.51h4.9l1.48,1.52v7.46Z"/>
      <path class="cls-1" d="m237.01,61.82l-3.67.03-1.66-1.67v-2.28l2.08-2.1v-.39h-2.79v6.45h-2.56v-7.5l1.48-1.52h4.91l1.56,1.48v2.89l-1.08,1.08h-1.81s3.54,3.55,3.54,3.55Z"/>
      <path class="cls-1" d="m241.87,60.39l-1.7,1.65-1.25-1.27h-.66s-1.03-1.05-1.03-1.05v-6.85h2.59s0,5.48,0,5.48l2.05,2.05Zm3.33-6.07v7.47l-2.39,2.43h-3.34s3.11-3.1,3.11-3.1v-8.28h1.11l1.52,1.47Z"/>
    </g>
    <g>
      <path class="cls-1" d="m138.2,95.78h-8.27l11.9-20.62h-8.98l-11.9,20.62h-8.19l13.84-23.98,7.55-4.87h15.71l2.1,5-13.77,23.85Z"/>
      <path class="cls-1" d="m150.75,95.78h-8.11l16.63-28.81h8.11l-16.63,28.81Z"/>
      <path class="cls-1" d="m176.86,95.7h-16.71l-2.18-4.86,13.8-23.9h8.27l-1.37,2.37h6.4l-2.06,3.57-10.1,6.4-4.73,8.19h13.43l-4.75,8.23Z"/>
      <path class="cls-1" d="m215.23,80.58l-5.9,3.73h-4.16l-4.87,3.24h6.15l-2.28,3.95-6.54,4.28h-16.59l13.95-24.17,7.51-4.81h15.67l2.21,4.81-5.17,8.96Zm-5.24-5.25h-9.02l-5.38,9.31h.25l13.84-8.77.31-.54Z"/>
      <path class="cls-1" d="m238.98,90.92l-7.59,4.86h-15.67l-2.18-4.86,5.26-9.1,5.44-3.45,5.73-.12,9.27-5.9-4.16,7.2-10.61,6.76-.71,1.26h8.98l11.86-20.54h8.19l-13.8,23.9Z"/>
    </g>
    <g>
      <path class="cls-1" d="m83.1,128.69l-11.77.08-2.24-5.34,4.22-7.3,10.53-6.72.72-1.25h-8.94l-11.9,20.62h-8.19l13.84-23.98,7.55-4.87h15.71l2.25,4.74-5.33,9.23-5.44,3.45-5.75-.04,4.73,11.39Z"/>
      <path class="cls-1" d="m93.44,128.77h-8.11l16.63-28.81h8.11l-16.63,28.81Z"/>
      <path class="cls-1" d="m126.05,123.91l-7.8,4.86h-15.71l-1.93-4.86,13.8-23.9h8.19l-11.86,20.54h8.94l.78-1.28-2.8-6.73,4.16-7.2,2.45,5.9,5.58.12,1.46,3.45-5.26,9.1Z"/>
      <path class="cls-1" d="m155.82,123.9l-7.59,4.87h-15.67l-2.18-4.87,13.84-23.98h8.19l-11.9,20.62h9.06l11.9-20.62h8.19l-13.84,23.98Z"/>
      <path class="cls-1" d="m179.08,128.69h-16.71l-2.18-4.86,13.8-23.9h8.27l-1.37,2.37h6.4l-2.06,3.58-10.1,6.4-4.73,8.19h13.43l-4.75,8.23Z"/>
      <path class="cls-1" d="m217.45,113.56l-5.9,3.73h-4.16l-4.87,3.24h6.15l-2.28,3.95-6.55,4.28h-16.58l13.95-24.17,7.51-4.81h15.67l2.21,4.81-5.17,8.96Zm-5.24-5.25h-9.02l-5.38,9.31h.25l13.84-8.77.31-.54Z"/>
    </g>
    <g>
      <path class="cls-1" d="m97.94,162.47l-10.2.08-1.52-5.34,4.22-7.3,9.64-6.72.72-1.25h-7.74l-11.9,20.62h-7.09l13.84-23.98,6.92-4.87h13.61l1.58,4.74-5.33,9.23-4.98,3.45-4.98-.04,3.22,11.39Z"/>
      <path class="cls-1" d="m123.64,162.47l-10.2.08-1.52-5.34,4.22-7.3,9.64-6.72.72-1.25h-7.74l-11.9,20.62h-7.09l13.84-23.98,6.92-4.87h13.61l1.58,4.74-5.33,9.23-4.98,3.45-4.98-.04,3.22,11.39Z"/>
      <path class="cls-1" d="m147.46,162.56h-7.09l11.83-20.49h-7.74l-3.68,6.38,1.96,6.58-3.99,6.9-1.54-5.45-1.01-.12-3.5,6.07h-7.16l13.73-23.78,7.1-4.82h13.57l1.3,4.86-13.78,23.87Z"/>
      <path class="cls-1" d="m173.2,162.56h-7.16l11.9-20.62h-7.78l-11.9,20.62h-7.09l13.84-23.98,6.92-4.87h13.61l1.44,5-13.77,23.85Z"/>
      <path class="cls-1" d="m199.08,162.39l-11.33,7.9-9.21-.04,14.53-9.99,10.53-18.23h-7.63l-5.38,9.32,1.88,6.57-7.74,5.27-1.1-4.07h-1.69l-1.04-3.37,9.86-17.08,7.13-4.86h13.57l1.33,4.86-13.7,23.74Z"/>
      <path class="cls-1" d="m233.53,147.35l-5.4,3.73h-3.6l-4.46,3.24h5.33l-2.28,3.95-6,4.28h-14.36l13.95-24.17,6.88-4.81h13.57l1.54,4.81-5.17,8.96Zm-4.13-5.25h-7.81l-5.38,9.31h.22l12.66-8.77.31-.54Z"/>
    </g>
    <path class="cls-1" d="m48.47,199.56h-14.18l27.33-47.33h-15.48l-8.51,14.74,2.74,15.21-9.21,15.94-2.1-12.58-1.99-.29-8.09,14.02H4.64l31.7-54.91,15.07-11.14h27.14l1.73,11.22-31.82,55.12Z"/>
    <path class="cls-1" d="m50.38,128.77H5.81l-5.81-12.97,36.8-63.74,23.94-3.26-5.53,9.58,13.36,5.74-8.69,13.43-12.27-6-20.36,35.27h35.8l-12.67,21.95Z"/>
    <g>
      <path class="cls-1" d="m31.11,26.1h-7.16V8.25h-7.78v17.86h-7.09V5.34L13.18,1.12h13.61l4.32,4.33v20.66Z"/>
      <path class="cls-1" d="m56.85,26.1h-7.09V8.36h-7.74v5.53l5.76,5.7v5.98l-4.68-4.72-1.08-.11v5.26h-7.16V5.4l4.32-4.18h13.57l4.1,4.21v20.67Z"/>
      <path class="cls-1" d="m97.67,26.1h-7.16V8.25h-7.92v17.86h-7.16V8.25h-7.78v17.86h-7.09V5.34l4.1-4.22h12.21l2.16,2.12,2.05-2.12h12.28l4.32,4.22v20.77Z"/>
      <path class="cls-1" d="m123.45,22.41l-3.53,3.69h-18.43V5.34l4.1-4.22h17.86v3.67l-3.34,3.35h-11.53v10.84h14.87v3.44Z"/>
      <path class="cls-1" d="m149.08,21.56l-4.32,4.54h-13.61l-4.1-4.22V5.34l4.1-4.22h13.61l4.32,4.22v16.22Zm-7.16-2.58v-10.73h-7.78v10.73h7.78Z"/>
    </g>
    <g>
      <path class="cls-1" d="m196.7,15.37l-36.07,35.86-6.48-.15v-12.7l23-22.86h-22.71V1.26l42.26.14v13.97Z"/>
      <path class="cls-1" d="m245.3,42.73l-8.64,8.35h-27.22l-8.21-8.35V9.68l8.21-8.42h27.22l8.64,8.42v33.05Zm-14.33-5.9V15.52h-15.55v21.31h15.55Z"/>
    </g>
    <g>
      <path class="cls-1" d="m104.48,205.9l-8.02,5.25h-15.71l-1.93-4.87,11.03-19.11,7.55-4.87h15.71l2.18,4.87-10.82,18.73Zm-6.55-2.99l7.15-12.39h-8.98l-7.15,12.39h8.98Z"/>
      <path class="cls-1" d="m133.34,211.07l-11.77.08-2.24-5.34,4.22-7.3,10.53-6.72.72-1.25h-8.94l-11.9,20.62h-8.19l13.84-23.98,7.55-4.87h15.71l2.25,4.74-5.33,9.23-5.44,3.45-5.75-.04,4.73,11.39Z"/>
      <path class="cls-1" d="m163.27,206.89l-6.53,4.26h-21.28l13.84-23.98,7.55-4.87h20.62l-2.45,4.24-6.09,3.87h-13.31l-7.22,12.51h17.17l-2.29,3.97Z"/>
      <path class="cls-1" d="m199.15,195.94l-5.9,3.73h-4.16l-4.87,3.24h6.15l-2.28,3.95-6.55,4.28h-16.59l13.95-24.17,7.51-4.81h15.67l2.21,4.81-5.17,8.96Zm-5.24-5.25h-9.02l-5.38,9.31h.25l13.84-8.77.31-.54Z"/>
    </g>
    <path class="cls-1" d="m81.51,195.99l-8.73,15.11-15.21,9.66-5.66,9.8h-17.4l11.17-19.34,6.89-11.93,13.74-.14,15.21-3.17Zm111.91-17.21h-111.91l-11.44,20.35-17.5.18,11.78-20.41,16.57-10.33h135.54l-23.03,10.22Z"/>
  </g>
</svg>