<?xml version="1.0" encoding="UTF-8"?>
<svg id="Layer_2" data-name="Layer 2" xmlns="http://www.w3.org/2000/svg" viewBox="0 0 151.31 79.15">
  <defs>
    <style>
      .cls-1 {
        fill: #fff;
        stroke-width: 0px;
      }
    </style>
  </defs>
  <g id="Layer_1-2" data-name="Layer 1">
    <g>
      <path class="cls-1" d="m7.33,76.96h-2.36v-5.92h-2.58v1.84l1.92,1.9v1.99l-1.56-1.57-.36-.04v1.75H0v-6.86l1.44-1.39h4.52l1.37,1.4v6.89Z"/>
      <path class="cls-1" d="m15.01,76.96h-2.39v-5.95h-2.59v5.95h-2.36v-6.92l1.37-1.41h4.54l1.44,1.44v6.89Z"/>
      <path class="cls-1" d="m22.7,76.96h-2.39v-5.95h-2.59v5.95h-2.36v-6.92l1.37-1.41h4.54l1.44,1.44v6.89Z"/>
      <path class="cls-1" d="m25.43,76.96h-2.34v-8.32h2.34v8.32Z"/>
      <path class="cls-1" d="m33.55,71.58l-3.53,5.38h-2.8l-1.44-1.41v-6.92h2.36v5.95h.72l2.34-3.6v-.97l1.37-1.38h.97v2.95Z"/>
      <path class="cls-1" d="m41.21,72.57l-1.08,1.08h-1.2l-.86.94h1.78v1.14l-1.18,1.24h-4.79v-6.98l1.37-1.39h4.52l1.44,1.39v2.59Zm-2.39-1.51h-2.6v2.69h.07l2.53-2.53v-.16Z"/>
      <path class="cls-1" d="m49.49,76.93l-3.38.02-1.54-1.54v-2.11l1.92-1.94v-.36h-2.58v5.95h-2.36v-6.92l1.37-1.41h4.54l1.44,1.37v2.66l-1,1h-1.67s3.26,3.28,3.26,3.28Z"/>
      <path class="cls-1" d="m56.31,71.04h-3.8l3.72,3.73v.96l-1.25,1.25h-5.77v-2.38h3.66l-3.6-3.56v-1.46l.91-.92h6.13v2.38Z"/>
      <path class="cls-1" d="m63.96,76.96h-2.36v-5.92h-2.58v1.84l1.92,1.9v1.99l-1.56-1.57-.36-.04v1.75h-2.39v-6.86l1.44-1.39h4.52l1.37,1.4v6.89Z"/>
      <path class="cls-1" d="m72.24,76.93l-3.38.02-1.54-1.54v-2.11l1.92-1.94v-.36h-2.58v5.95h-2.36v-6.92l1.37-1.41h4.54l1.44,1.37v2.66l-1,1h-1.67s3.26,3.28,3.26,3.28Z"/>
      <path class="cls-1" d="m76.24,75.62l-1.57,1.52-1.15-1.18h-.61s-.95-.97-.95-.97v-6.32h2.39s0,5.05,0,5.05l1.89,1.9Zm3.08-5.61v6.9l-2.21,2.24h-3.09s2.87-2.86,2.87-2.86v-7.64h1.02l1.4,1.36Z"/>
    </g>
    <g>
      <path class="cls-1" d="m12.61,14.28h-4.09V4.07h-4.44v10.21H.02V2.41L2.36,0h7.78l2.47,2.47v11.81Z"/>
      <path class="cls-1" d="m27.32,14.28h-4.05V4.14h-4.42v3.16l3.29,3.26v3.42l-2.67-2.7-.62-.06v3h-4.09V2.45L17.22.06h7.76l2.35,2.4v11.81Z"/>
      <path class="cls-1" d="m50.66,14.28h-4.09V4.07h-4.53v10.21h-4.09V4.07h-4.44v10.21h-4.05V2.41l2.35-2.41h6.98l1.23,1.21,1.17-1.21h7.02l2.47,2.41v11.87Z"/>
      <path class="cls-1" d="m65.39,12.17l-2.02,2.11h-10.54V2.41l2.35-2.41h10.21v2.1l-1.91,1.91h-6.59v6.19h8.5v1.97Z"/>
      <path class="cls-1" d="m80.04,11.68l-2.47,2.6h-7.78l-2.35-2.41V2.41l2.35-2.41h7.78l2.47,2.41v9.27Zm-4.09-1.48v-6.13h-4.44v6.13h4.44Z"/>
    </g>
    <g>
      <path class="cls-1" d="m42.83,30.14L6.75,66l-6.48-.15v-12.7l23-22.86H.56v-14.26l42.26.14v13.97Z"/>
      <path class="cls-1" d="m78.68,57.65l-8.64,8.35h-27.22l-8.21-8.35V24.6l8.21-8.42h27.22l8.64,8.42v33.05Zm-14.33-5.9v-21.31h-15.55v21.31h15.55Z"/>
    </g>
    <g>
      <path class="cls-1" d="m114.17,26.27l-5.17,5.29h-16.95l-5.39-5.29V.22h8.86v22.39h9.8V.22h8.86v26.04Z"/>
      <path class="cls-1" d="m144.56,31.47h-18.07l-5.39-5.28V.22h8.95v2.57h6.92v3.88l-6.92,6.95v8.89h14.52v8.94Z"/>
      <path class="cls-1" d="m114.13,76.71h-8.86v-22.26h-9.67v6.93l7.19,7.15v7.5l-5.84-5.92-1.35-.14v6.59h-8.95v-25.83l5.39-5.24h16.95l5.12,5.27v25.92Z"/>
      <path class="cls-1" d="m146.72,53.95h-16.77v6.68l-8.86.09v-10.43l5.4-5.28h20.23v8.94Zm-11.87,5.08v7.72l-4.9,4.94v5.01h-8.86v-9.89l3.68-3.75h6.03l4.05-4.04Z"/>
    </g>
    <polygon class="cls-1" points="137.73 43.39 45.33 43.39 45.33 34.89 151.31 34.89 137.73 43.39"/>
  </g>
</svg>